# xmcd
#
# Track frame offsets: 
#        150
#        11300
#        28343
#        41030
#        58310
#        69603
#        85048
#        103952
#        121590
#        136848
#        150845
#        171534
#        183592
#        198116
#        214971
#
# Disc length: 2964 seconds
#
# Revision: 1
# Processed by: cddbd v1.5.2PL0 Copyright (c) Steve Scherf et al.
# Submitted via: ExactAudioCopy v1.3
#
DISCID=cf0b920f
DTITLE=Southern Rail - Voices In the Wind
DYEAR=2017
DGENRE=Bluegrass
TTITLE0=Two Hands
TTITLE1=Gone For Way Too Long
TTITLE2=Road Trip
TTITLE3=Field Of Glory
TTITLE4=Turn Your Radio On
TTITLE5=A Common Prayer
TTITLE6=Tractor Pull
TTITLE7=Who Has Known
TTITLE8=Gone At Last
TTITLE9=Red Rubber Ball
TTITLE10=Rebel Ghost
TTITLE11=I Can See Clearly Now
TTITLE12=Song For the Life
TTITLE13=Voices In the Wind
TTITLE14=Far Far Away On Judea's Plains (live)
EXTD=
EXTT0=
EXTT1=
EXTT2=
EXTT3=
EXTT4=
EXTT5=
EXTT6=
EXTT7=
EXTT8=
EXTT9=
EXTT10=
EXTT11=
EXTT12=
EXTT13=
EXTT14=
PLAYORDER=
